<?xml version="1.0" encoding="UTF-8"?>
<svg id="Layer_1" data-name="Layer 1" xmlns="http://www.w3.org/2000/svg" viewBox="0 0 1080 1080">
  <defs>
    <style>
      .cls-1 {
        fill: #546f8a;
      }
    </style>
  </defs>
  <path class="cls-1" d="M865.03,538.43c9.01,3.29,17.81,5.18,27.28,5.19l73.19.1c2.56,0,4.46,1.28,5.79,3.21l6.24,9.09c.58.84.45,2.18-.06,2.9-.4.56-1.18,1.32-2.51,1.31l-137.03-.08c-22.5-.01-44.97-9.75-59.38-27.28l-109.12-132.7c-2.17-2.64-2.38-6.48-1.06-9.34,1.02-2.2,4.1-5.12,7.61-5.12l203.9-.07c2.37,0,4.16.96,5.39,2.67l6.3,8.74c.66.91,1.06,4.33-.48,4.34l-130.74.19c-3.17,0-6.04,1.98-7.24,3.83-1.81,2.79-1.81,6.4.09,8.93l7.29,9.71,77.07,94.12c7.38,9.01,16.29,16.19,27.47,20.26Z"/>
  <path class="cls-1" d="M91.04,555.1l5.36-7.81c1.51-2.19,3.63-3.61,6.47-3.61l69.52-.04c20.77-.01,42.11-5.74,55.53-22.09l70.3-85.65,37.42-45.41c2.74-3.33,8.35-4.68,12.52-4.68h45.42c3.65-.01,6.06,3.75,6.81,6.15,1.23,3.89.02,6.92-2.37,9.77l-15.15,18.18-88.66,107.83c-5.94,7.23-11.96,13.7-19.76,18.87-13.74,9.1-29.53,13.65-46.2,13.65l-134.84-.02c-1.56,0-2.42-1.04-2.89-1.9-.55-1.01-.25-2.16.49-3.24Z"/>
  <path class="cls-1" d="M679.96,560.67c-7.05-.03-12.27-3.75-16.4-8.79l-58.84-71.84-46.64-56.64c-11.29-13.71-29.98-21.8-47.62-21.83l-71.65-.13c-1.05,0-2.09-.45-2.58-1s-.73-1.93-.1-2.82l6.4-8.89c1.47-2.05,3.64-3.1,6.39-3.1l110.58.09c14.8.01,29.05,3.76,42,10.45,8.86,4.57,15.55,11.29,21.78,18.94l43.55,53.44,63.03,76.58c3.26,3.96,4.05,9.32.03,12.87-2.23,1.97-5.8,2.81-8.9,2.79l-41.02-.15Z"/>
  <path class="cls-1" d="M442.86,490.12l-50.83,62.65c-3.64,4.49-9.2,7.45-14.83,7.44l-29.67-.05c-2.83,0-5.44-2.43-6.27-4.26-1.26-2.76-.78-5.99,1.17-8.42l34.24-42.65,22.97-28.21c12.35-15.16,31.73-23.15,51.29-23.16l78.98-.05c1.6,0,3.46.5,4.28,1.61l5.93,7.91c.89,1.19,1.45,4.63-.15,5.36l-54.94.36c-9.54.06-18.68,3.32-26.82,8-6,3.46-10.84,7.87-15.37,13.45Z"/>
  <g>
    <polygon class="cls-1" points="140.07 651.49 163.94 651.49 163.94 640.21 140.07 640.21 140.07 631.23 167.17 631.23 167.17 619.41 125.1 619.41 125.1 673.14 168.17 673.14 168.17 661.32 140.07 661.32 140.07 651.49"/>
    <polygon class="cls-1" points="226.35 619.41 210 619.41 199.39 634.95 188.66 619.41 171.54 619.41 190.29 645.87 170.7 673.14 188.05 673.14 199.01 656.52 210.15 673.14 227.66 673.14 207.72 645.36 226.35 619.41"/>
    <path class="cls-1" d="M268.57,621.79c-3.58-1.59-7.83-2.38-12.74-2.38h-24.49v53.73h15.2v-14.05h9.29c4.91,0,9.16-.81,12.74-2.42s6.33-3.89,8.25-6.83c1.92-2.94,2.88-6.49,2.88-10.63s-.96-7.56-2.88-10.55-4.67-5.28-8.25-6.87ZM262.04,645.01c-1.59,1.36-3.97,2.03-7.14,2.03h-8.37v-15.66h8.37c3.17,0,5.55.7,7.14,2.11,1.59,1.41,2.38,3.31,2.38,5.72s-.79,4.44-2.38,5.8Z"/>
    <path class="cls-1" d="M332.62,649.81c1.92-2.92,2.88-6.45,2.88-10.59,0-6.14-2.1-10.98-6.29-14.51-4.2-3.53-10.24-5.3-18.12-5.3h-23.95v53.73h15.2v-14.28h8.22l9.74,14.28h16.27l-11.6-16.9c3.28-1.54,5.84-3.68,7.65-6.43ZM317.85,633.49c1.59,1.41,2.38,3.31,2.38,5.72s-.79,4.45-2.38,5.83c-1.59,1.38-3.97,2.07-7.14,2.07h-8.37v-15.74h8.37c3.17,0,5.55.7,7.14,2.11Z"/>
    <polygon class="cls-1" points="358.91 651.49 382.79 651.49 382.79 640.21 358.91 640.21 358.91 631.23 386.01 631.23 386.01 619.41 343.95 619.41 343.95 673.14 387.01 673.14 387.01 661.32 358.91 661.32 358.91 651.49"/>
    <path class="cls-1" d="M432.1,645.32c-1.82-1.15-3.8-2.07-5.95-2.76-2.15-.69-4.31-1.27-6.49-1.73-2.18-.46-4.16-.91-5.95-1.34-1.79-.43-3.25-1-4.38-1.69-1.13-.69-1.69-1.65-1.69-2.88,0-.82.28-1.59.84-2.3.56-.72,1.48-1.31,2.76-1.77,1.28-.46,2.97-.69,5.07-.69,2.35,0,4.78.33,7.29,1,2.51.67,5.04,1.71,7.6,3.15l4.61-11.21c-2.61-1.59-5.62-2.78-9.02-3.57-3.4-.79-6.87-1.19-10.4-1.19-5.27,0-9.67.79-13.2,2.38-3.53,1.59-6.17,3.68-7.91,6.29-1.74,2.61-2.61,5.5-2.61,8.67,0,2.87.55,5.25,1.65,7.14,1.1,1.89,2.54,3.43,4.34,4.61,1.79,1.18,3.79,2.12,5.99,2.84,2.2.72,4.36,1.29,6.49,1.73,2.12.44,4.09.9,5.91,1.38,1.82.49,3.29,1.07,4.41,1.77,1.12.69,1.69,1.62,1.69,2.8,0,.92-.29,1.71-.88,2.38-.59.67-1.51,1.18-2.76,1.54-1.25.36-2.96.54-5.1.54-3.12,0-6.26-.5-9.4-1.5-3.15-1-5.92-2.26-8.33-3.8l-4.99,11.28c2.51,1.69,5.8,3.08,9.86,4.18s8.33,1.65,12.78,1.65c5.32,0,9.75-.79,13.28-2.38,3.53-1.59,6.18-3.7,7.94-6.33,1.77-2.63,2.65-5.51,2.65-8.64,0-2.81-.56-5.15-1.69-7.02-1.13-1.87-2.6-3.38-4.41-4.53Z"/>
    <path class="cls-1" d="M481.77,645.32c-1.82-1.15-3.8-2.07-5.95-2.76-2.15-.69-4.31-1.27-6.49-1.73-2.18-.46-4.16-.91-5.95-1.34-1.79-.43-3.25-1-4.38-1.69-1.13-.69-1.69-1.65-1.69-2.88,0-.82.28-1.59.84-2.3.56-.72,1.48-1.31,2.76-1.77,1.28-.46,2.97-.69,5.07-.69,2.35,0,4.78.33,7.29,1,2.51.67,5.04,1.71,7.6,3.15l4.61-11.21c-2.61-1.59-5.62-2.78-9.02-3.57-3.4-.79-6.87-1.19-10.4-1.19-5.27,0-9.67.79-13.2,2.38-3.53,1.59-6.17,3.68-7.91,6.29-1.74,2.61-2.61,5.5-2.61,8.67,0,2.87.55,5.25,1.65,7.14,1.1,1.89,2.54,3.43,4.34,4.61,1.79,1.18,3.79,2.12,5.99,2.84,2.2.72,4.36,1.29,6.49,1.73,2.12.44,4.09.9,5.91,1.38,1.82.49,3.29,1.07,4.41,1.77,1.12.69,1.69,1.62,1.69,2.8,0,.92-.29,1.71-.88,2.38-.59.67-1.51,1.18-2.76,1.54-1.25.36-2.96.54-5.1.54-3.12,0-6.26-.5-9.4-1.5-3.15-1-5.92-2.26-8.33-3.8l-4.99,11.28c2.51,1.69,5.8,3.08,9.86,4.18s8.33,1.65,12.78,1.65c5.32,0,9.75-.79,13.28-2.38,3.53-1.59,6.18-3.7,7.94-6.33,1.77-2.63,2.65-5.51,2.65-8.64,0-2.81-.56-5.15-1.69-7.02-1.13-1.87-2.6-3.38-4.41-4.53Z"/>
    <path class="cls-1" d="M557.33,655.26c-1.74,2.1-3.66,3.68-5.76,4.76-2.1,1.07-4.4,1.61-6.91,1.61-2.2,0-4.22-.36-6.06-1.07-1.84-.72-3.42-1.75-4.72-3.11-1.3-1.36-2.33-2.98-3.07-4.87-.74-1.89-1.11-3.99-1.11-6.29s.37-4.4,1.11-6.29c.74-1.89,1.77-3.52,3.07-4.87,1.3-1.36,2.88-2.39,4.72-3.11,1.84-.72,3.86-1.07,6.06-1.07,2.51,0,4.81.54,6.91,1.61,2.1,1.07,4.02,2.64,5.76,4.68l9.67-8.75c-2.61-3.33-5.87-5.85-9.79-7.56-3.92-1.71-8.36-2.57-13.32-2.57-4.25,0-8.16.68-11.74,2.03-3.58,1.36-6.7,3.28-9.36,5.76-2.66,2.48-4.73,5.44-6.22,8.87-1.48,3.43-2.23,7.19-2.23,11.28s.74,7.86,2.23,11.28c1.48,3.43,3.56,6.38,6.22,8.87,2.66,2.48,5.78,4.4,9.36,5.76s7.5,2.03,11.74,2.03c4.96,0,9.4-.87,13.32-2.61,3.91-1.74,7.18-4.27,9.79-7.6l-9.67-8.75Z"/>
    <path class="cls-1" d="M589.5,619.41l-23.72,53.73h15.51l4.22-10.52h22.72l4.22,10.52h15.81l-23.79-53.73h-14.97ZM589.97,651.49l6.9-17.18,6.89,17.18h-13.79Z"/>
    <path class="cls-1" d="M674.74,645.47c-.29-.12-.61-.21-.91-.31,2.16-1.13,3.86-2.59,5.1-4.41,1.43-2.1,2.15-4.53,2.15-7.29,0-4.15-1.74-7.52-5.22-10.13-3.48-2.61-8.78-3.91-15.89-3.91h-27.33v53.73h28.86c7.27,0,12.78-1.3,16.54-3.91,3.76-2.61,5.64-6.22,5.64-10.82,0-3.07-.78-5.71-2.34-7.91-1.56-2.2-3.76-3.88-6.6-5.03ZM658.04,630.39c2.56,0,4.48.42,5.76,1.27,1.28.84,1.92,2.16,1.92,3.95,0,1.69-.64,2.97-1.92,3.84-1.28.87-3.2,1.3-5.76,1.3h-10.44v-10.36h10.44ZM666.33,660.82c-1.33.9-3.33,1.34-5.99,1.34h-12.74v-10.9h12.74c2.66,0,4.66.45,5.99,1.34,1.33.9,2,2.26,2,4.11s-.67,3.21-2,4.11Z"/>
    <path class="cls-1" d="M726.59,648.81c0,4.56-.88,7.83-2.65,9.83-1.77,2-4.24,2.99-7.41,2.99s-5.65-1-7.45-2.99c-1.79-2-2.69-5.27-2.69-9.83v-29.4h-15.2v29.86c0,7.93,2.21,14.07,6.64,18.42,4.43,4.35,10.6,6.52,18.54,6.52s14.06-2.17,18.54-6.52c4.48-4.35,6.72-10.49,6.72-18.42v-29.86h-15.04v29.4Z"/>
    <path class="cls-1" d="M792.99,622.71c-4.5-2.2-9.7-3.3-15.58-3.3h-25.41v53.73h25.41c5.88,0,11.08-1.1,15.58-3.3,4.5-2.2,8.02-5.31,10.55-9.33,2.53-4.02,3.8-8.76,3.8-14.24s-1.27-10.29-3.8-14.28-6.05-7.09-10.55-9.29ZM790.07,654.14c-1.28,2.23-3.06,3.93-5.33,5.1-2.28,1.18-4.98,1.77-8.1,1.77h-9.44v-29.48h9.44c3.12,0,5.82.59,8.1,1.77,2.28,1.18,4.05,2.85,5.33,5.03,1.28,2.18,1.92,4.82,1.92,7.94s-.64,5.64-1.92,7.87Z"/>
    <path class="cls-1" d="M831.83,619.41l-23.72,53.73h15.51l4.22-10.52h22.72l4.22,10.52h15.81l-23.79-53.73h-14.97ZM832.3,651.49l6.9-17.18,6.89,17.18h-13.79Z"/>
    <path class="cls-1" d="M920.44,649.81c1.92-2.92,2.88-6.45,2.88-10.59,0-6.14-2.1-10.98-6.29-14.51-4.2-3.53-10.24-5.3-18.12-5.3h-23.95v53.73h15.2v-14.28h8.22l9.74,14.28h16.27l-11.6-16.9c3.28-1.54,5.84-3.68,7.65-6.43ZM905.67,633.49c1.59,1.41,2.38,3.31,2.38,5.72s-.79,4.45-2.38,5.83c-1.59,1.38-3.97,2.07-7.14,2.07h-8.37v-15.74h8.37c3.17,0,5.55.7,7.14,2.11Z"/>
    <polygon class="cls-1" points="946.73 661.32 946.73 651.49 970.61 651.49 970.61 640.21 946.73 640.21 946.73 631.23 973.83 631.23 973.83 619.41 931.76 619.41 931.76 673.14 974.83 673.14 974.83 661.32 946.73 661.32"/>
  </g>
</svg>